<?xml version="1.0" encoding="UTF-8"?>
<svg width="266px" height="57px" viewBox="0 0 266 57" version="1.1" xmlns="http://www.w3.org/2000/svg" xmlns:xlink="http://www.w3.org/1999/xlink">
    <!-- Generator: Sketch 52.6 (67491) - http://www.bohemiancoding.com/sketch -->
    <title>WHISP</title>
    <desc>Created with Sketch.</desc>
    <g id="Page-1" stroke="none" stroke-width="1" fill="none" fill-rule="evenodd">
        <g id="Desktop-HD-Copy" transform="translate(-587.000000, -302.000000)" fill="#E99EFF">
            <path d="M628.090196,302.899685 L639.59823,302.899685 C640.576547,302.899685 641.284528,303.118516 641.722196,303.556184 C642.159864,303.993852 642.378695,304.701834 642.378695,305.68015 L642.378695,335.64738 C642.378695,337.295071 642.314333,338.826886 642.185607,340.242871 C642.056881,341.658855 641.657837,343.319394 640.988462,345.224536 L637.126706,355.728514 C636.869254,356.500869 636.495955,357.157361 636.006797,357.69801 C635.517638,358.238658 634.861146,358.508979 634.037301,358.508979 L623.765029,358.508979 C622.941183,358.508979 622.194584,358.328765 621.52521,357.968333 C620.855835,357.6079 620.418174,357.01577 620.212213,356.191925 L616.659397,343.602599 C616.504926,343.087695 616.31184,342.740141 616.080133,342.559924 C615.848427,342.379708 615.578106,342.289602 615.269164,342.289602 L614.574048,342.289602 C614.265106,342.289602 613.994786,342.379708 613.763079,342.559924 C613.531373,342.740141 613.338287,343.087695 613.183816,343.602599 L609.553765,356.191925 C609.347803,356.96428 608.961632,357.543538 608.395238,357.929715 C607.828844,358.315893 607.133735,358.508979 606.309889,358.508979 L596.114852,358.508979 C595.291007,358.508979 594.583025,358.251531 593.990886,357.736627 C593.398747,357.221724 592.973958,356.55236 592.716507,355.728514 L588.85475,345.070066 C588.185376,343.164923 587.786331,341.504385 587.657606,340.0884 C587.52888,338.672416 587.464518,337.140601 587.464518,335.49291 L587.464518,305.68015 C587.464518,304.701834 587.683348,303.993852 588.121016,303.556184 C588.558684,303.118516 589.266666,302.899685 590.244982,302.899685 L602.139192,302.899685 C603.117509,302.899685 603.82549,303.118516 604.263158,303.556184 C604.700826,303.993852 604.919657,304.701834 604.919657,305.68015 L604.919657,334.102678 L609.399295,324.371051 C609.811217,323.495716 610.351858,322.877841 611.021232,322.517408 C611.690607,322.156976 612.51444,321.976762 613.492756,321.976762 L616.736632,321.976762 C617.714948,321.976762 618.538781,322.156976 619.208156,322.517408 C619.87753,322.877841 620.418171,323.495716 620.830094,324.371051 L625.309731,334.102678 L625.309731,305.68015 C625.309731,304.701834 625.528562,303.993852 625.96623,303.556184 C626.403898,303.118516 627.111879,302.899685 628.090196,302.899685 Z M667.093936,358.508979 L655.122491,358.508979 C654.144175,358.508979 653.436193,358.290148 652.998525,357.85248 C652.560857,357.414812 652.342027,356.706831 652.342027,355.728514 L652.342027,305.68015 C652.342027,304.701834 652.560857,303.993852 652.998525,303.556184 C653.436193,303.118516 654.144175,302.899685 655.122491,302.899685 L667.093936,302.899685 C668.072253,302.899685 668.780234,303.118516 669.217902,303.556184 C669.65557,303.993852 669.874401,304.701834 669.874401,305.68015 L669.874401,322.440173 L682.772668,322.440173 L682.772668,305.68015 C682.772668,304.701834 682.991498,303.993852 683.429166,303.556184 C683.866834,303.118516 684.574816,302.899685 685.553132,302.899685 L697.524577,302.899685 C698.502894,302.899685 699.210875,303.118516 699.648543,303.556184 C700.086211,303.993852 700.305042,304.701834 700.305042,305.68015 L700.305042,355.728514 C700.305042,356.706831 700.086211,357.414812 699.648543,357.85248 C699.210875,358.290148 698.502894,358.508979 697.524577,358.508979 L685.553132,358.508979 C684.574816,358.508979 683.866834,358.290148 683.429166,357.85248 C682.991498,357.414812 682.772668,356.706831 682.772668,355.728514 L682.772668,338.582315 L669.874401,338.582315 L669.874401,355.728514 C669.874401,356.706831 669.65557,357.414812 669.217902,357.85248 C668.780234,358.290148 668.072253,358.508979 667.093936,358.508979 Z M712.508192,358.508979 C711.529876,358.508979 710.821894,358.290148 710.384226,357.85248 C709.946558,357.414812 709.727728,356.706831 709.727728,355.728514 L709.727728,346.537534 C709.727728,345.559217 709.946558,344.851236 710.384226,344.413568 C710.821894,343.9759 711.529876,343.757069 712.508192,343.757069 L720.15447,343.757069 L720.15447,317.806065 L712.508192,317.806065 C711.529876,317.806065 710.821894,317.587235 710.384226,317.149567 C709.946558,316.711899 709.727728,316.003917 709.727728,315.025601 L709.727728,305.68015 C709.727728,304.701834 709.946558,303.993852 710.384226,303.556184 C710.821894,303.118516 711.529876,302.899685 712.508192,302.899685 L745.410358,302.899685 C746.388674,302.899685 747.096656,303.118516 747.534324,303.556184 C747.971992,303.993852 748.190822,304.701834 748.190822,305.68015 L748.190822,315.025601 C748.190822,316.003917 747.971992,316.711899 747.534324,317.149567 C747.096656,317.587235 746.388674,317.806065 745.410358,317.806065 L737.91855,317.806065 L737.91855,343.757069 L745.410358,343.757069 C746.388674,343.757069 747.096656,343.9759 747.534324,344.413568 C747.971992,344.851236 748.190822,345.559217 748.190822,346.537534 L748.190822,355.728514 C748.190822,356.706831 747.971992,357.414812 747.534324,357.85248 C747.096656,358.290148 746.388674,358.508979 745.410358,358.508979 L712.508192,358.508979 Z M783.487276,358.508979 L759.080976,358.508979 C758.102659,358.508979 757.394677,358.290148 756.957009,357.85248 C756.519342,357.414812 756.300511,356.706831 756.300511,355.728514 L756.300511,346.692004 C756.300511,345.713687 756.519342,345.005706 756.957009,344.568038 C757.394677,344.13037 758.102659,343.911539 759.080976,343.911539 L779.857225,343.911539 C780.5266,343.911539 781.028623,343.692709 781.36331,343.255041 C781.697998,342.817373 781.865339,342.289605 781.865339,341.671721 C781.865339,340.796385 781.697998,340.152765 781.36331,339.740842 C781.028623,339.32892 780.5266,339.097216 779.857225,339.045726 L768.271956,337.423788 C764.667632,336.908885 761.771343,335.724625 759.583004,333.870972 C757.394664,332.01732 756.300511,328.927946 756.300511,324.602757 L756.300511,316.493068 C756.300511,312.116389 757.716474,308.756695 760.548443,306.413884 C763.380412,304.071073 767.293619,302.899685 772.288183,302.899685 L793.914019,302.899685 C794.892335,302.899685 795.600317,303.118516 796.037985,303.556184 C796.475653,303.993852 796.694484,304.701834 796.694484,305.68015 L796.694484,314.871131 C796.694484,315.849447 796.475653,316.557429 796.037985,316.995097 C795.600317,317.432765 794.892335,317.651595 793.914019,317.651595 L775.918234,317.651595 C775.248859,317.651595 774.733964,317.870426 774.373531,318.308094 C774.013099,318.745762 773.832885,319.299275 773.832885,319.968649 C773.832885,320.638024 774.013099,321.204409 774.373531,321.667822 C774.733964,322.131235 775.248859,322.388683 775.918234,322.440173 L787.426268,323.984876 C791.030592,324.499779 793.939753,325.684039 796.153838,327.537692 C798.367923,329.391344 799.474948,332.480718 799.474948,336.805907 L799.474948,344.915596 C799.474948,349.292275 798.046113,352.65197 795.188399,354.99478 C792.330685,357.337591 788.430349,358.508979 783.487276,358.508979 Z M822.645487,358.508979 L810.674042,358.508979 C809.695726,358.508979 808.987744,358.290148 808.550076,357.85248 C808.112408,357.414812 807.893577,356.706831 807.893577,355.728514 L807.893577,305.68015 C807.893577,304.701834 808.112408,303.993852 808.550076,303.556184 C808.987744,303.118516 809.695726,302.899685 810.674042,302.899685 L834.307992,302.899685 C841.310678,302.899685 846.099209,304.289904 848.673726,307.070382 C851.248243,309.850861 852.535482,313.480876 852.535482,317.960536 L852.535482,327.846632 C852.535482,332.326292 851.248243,335.956307 848.673726,338.736786 C846.099209,341.517264 841.310678,342.907483 834.307992,342.907483 L825.425952,342.907483 L825.425952,355.728514 C825.425952,356.706831 825.207121,357.414812 824.769453,357.85248 C824.331785,358.290148 823.623804,358.508979 822.645487,358.508979 Z M825.271482,317.342655 L825.271482,329.005159 L832.222643,329.005159 C833.715863,329.005159 834.694165,328.618987 835.157578,327.846632 C835.620991,327.074277 835.852694,326.198954 835.852694,325.220638 L835.852694,321.127176 C835.852694,320.14886 835.620991,319.273537 835.157578,318.501182 C834.694165,317.728826 833.715863,317.342655 832.222643,317.342655 L825.271482,317.342655 Z" id="WHISP"></path>
        </g>
    </g>
</svg>